<?xml version="1.0" encoding="UTF-8" standalone="no"?>
<svg
   viewBox="0 0 36 36"
   version="1.1"
   id="svg16"
   sodipodi:docname="32.svg"
   inkscape:export-filename="/home/ry/Documents/fox32/docs/logos/32.png"
   inkscape:export-xdpi="341.33334"
   inkscape:export-ydpi="341.33334"
   inkscape:version="1.1.2 (0a00cf5339, 2022-02-04, custom)"
   width="36"
   height="36"
   xmlns:inkscape="http://www.inkscape.org/namespaces/inkscape"
   xmlns:sodipodi="http://sodipodi.sourceforge.net/DTD/sodipodi-0.dtd"
   xmlns="http://www.w3.org/2000/svg"
   xmlns:svg="http://www.w3.org/2000/svg">
  <defs
     id="defs20">
    <inkscape:path-effect
       effect="powerclip"
       id="path-effect51605"
       is_visible="true"
       lpeversion="1"
       inverse="true"
       flatten="false"
       hide_clip="false"
       message="Use fill-rule evenodd on &lt;b&gt;fill and stroke&lt;/b&gt; dialog if no flatten result after convert clip to paths." />
    <clipPath
       clipPathUnits="userSpaceOnUse"
       id="clipPath51601">
      <path
         style="display:none;fill:#f18f26;fill-opacity:1;stroke-width:0.0502793"
         d="M 14.587831,27.863504 C 14.382965,27.727479 13.734884,26.908543 13.457514,26.435201 13.074891,25.782241 12.802463,25.12596 12.2477,23.520759 11.54419,21.485155 11.532784,21.464321 11.049545,21.332324 10.678257,21.230906 9.0747412,21.190197 8.3212291,21.263058 7.5503856,21.337595 6.4089614,21.570204 5.6761529,21.802094 4.1005881,22.300666 3.0721423,22.860948 2.1641077,23.715406 1.7440613,24.110668 1.696405,24.142717 1.7284655,24.00838 1.7908089,23.747154 2.5898195,22.17273 2.964067,21.573668 3.3024942,21.031943 4.10012,19.944034 4.5066782,19.469646 4.6078844,19.351555 4.6742061,19.238427 4.6540598,19.21825 4.6339135,19.198073 4.172433,19.1738 3.6285475,19.164311 c -0.5438855,-0.0095 -0.9971402,-0.02529 -1.0072326,-0.03511 -0.051212,-0.04983 1.4590175,-2.760125 2.0373689,-3.656307 0.7207834,-1.116888 1.8379204,-2.499044 2.7887559,-3.450332 1.1558488,-1.1564 2.2171525,-1.919729 3.7145713,-2.6716564 1.167618,-0.5863179 2.814287,-0.8933047 5.434415,-1.0131321 2.787996,-0.1275046 5.8009,0.134319 7.311395,0.6353659 1.064281,0.3530328 2.407592,1.1206046 3.519475,2.0110386 1.248433,0.999788 2.838308,2.82234 3.90961,4.48178 0.566992,0.878269 2.048569,3.523133 2.048569,3.657043 0,0.01838 -0.345042,0.03566 -0.76676,0.0384 -0.421718,0.0027 -0.889733,0.0197 -1.040035,0.03771 l -0.273275,0.03274 0.340993,0.418558 c 0.563124,0.691217 1.176336,1.55625 1.545759,2.18054 0.377875,0.638571 1.019097,1.934392 1.077479,2.177438 0.03251,0.135328 -0.0072,0.109342 -0.386254,-0.25271 -1.055819,-1.008484 -2.340669,-1.658309 -4.22344,-2.136041 -1.067335,-0.270825 -1.740108,-0.360359 -2.911339,-0.387453 -1.113448,-0.02576 -1.922155,0.05148 -2.104624,0.201 -0.172488,0.141344 -0.558337,1.078132 -1.216006,2.952299 -0.549422,1.565695 -1.162101,2.673918 -1.842111,3.332038 l -0.247837,0.239859 -0.159143,-0.07939 c -0.269958,-0.134674 -0.960666,-0.172303 -3.153742,-0.171816 -2.179025,5.03e-4 -2.9376,0.03891 -3.182763,0.16121 -0.123158,0.06144 -0.156957,0.06093 -0.254546,-0.0039 z"
         id="path51603" />
      <path
         id="lpe_path-effect51605"
         style="fill:#f18f26;fill-opacity:1;stroke-width:0.0502793"
         class="powerclip"
         d="M 6,10.5 H 30 V 36.776 H 6 Z m 8.587831,17.363504 v -2.1e-5 c 0.09759,0.06483 0.131388,0.06534 0.254546,0.0039 0.245163,-0.1223 1.003738,-0.160707 3.182763,-0.16121 2.193076,-4.87e-4 2.883784,0.03714 3.153742,0.171816 l 0.159143,0.07939 0.247837,-0.239859 c 0.68001,-0.65812 1.292689,-1.766343 1.842111,-3.332038 0.657669,-1.874167 1.043518,-2.810955 1.216006,-2.952299 0.182469,-0.14952 0.991176,-0.22676 2.104624,-0.201 1.171231,0.02709 1.844004,0.116628 2.911339,0.387453 1.882771,0.477732 3.167621,1.127557 4.22344,2.136041 0.379054,0.362052 0.418764,0.388038 0.386254,0.25271 -0.05838,-0.243046 -0.699604,-1.538867 -1.077479,-2.177438 -0.369423,-0.62429 -0.982635,-1.489323 -1.545759,-2.18054 l -0.340993,-0.418558 0.273275,-0.03274 c 0.150302,-0.01801 0.618317,-0.03501 1.040035,-0.03771 0.421718,-0.0027 0.76676,-0.02002 0.76676,-0.0384 0,-0.13391 -1.481577,-2.778774 -2.048569,-3.657043 -1.071302,-1.65944 -2.661177,-3.481992 -3.90961,-4.48178 C 26.315413,10.093744 24.972102,9.3261722 23.907821,8.9731394 22.397326,8.4720925 19.384422,8.2102689 16.596426,8.3377735 13.976298,8.4576009 12.329629,8.7645877 11.162011,9.3509056 9.6645922,10.102833 8.6032885,10.866162 7.4474397,12.022562 6.4966042,12.97385 5.3794672,14.356006 4.6586838,15.472894 c -0.5783514,0.896182 -2.0885809,3.606477 -2.0373689,3.656307 0.010092,0.0098 0.4633471,0.02561 1.0072326,0.03511 0.5438855,0.0095 1.005366,0.03376 1.0255123,0.05394 0.020146,0.02018 -0.046175,0.133305 -0.1473816,0.251396 -0.4065582,0.474388 -1.204184,1.562297 -1.5426112,2.104022 -0.3742475,0.599062 -1.1732581,2.173486 -1.2356015,2.434712 -0.032061,0.134337 0.015596,0.102288 0.4356422,-0.292974 0.9080346,-0.854458 1.9364804,-1.41474 3.5120452,-1.913312 0.7328085,-0.23189 1.8742327,-0.464499 2.6450762,-0.539036 0.7535121,-0.07286 2.3570279,-0.03215 2.7283159,0.06927 0.483239,0.131997 0.494645,0.152831 1.198155,2.188435 0.554763,1.605201 0.827191,2.261482 1.209814,2.914442 0.27737,0.473342 0.925451,1.292278 1.130317,1.428303 z" />
    </clipPath>
  </defs>
  <sodipodi:namedview
     id="namedview18"
     pagecolor="#ffffff"
     bordercolor="#666666"
     borderopacity="1.0"
     inkscape:pageshadow="2"
     inkscape:pageopacity="0.0"
     inkscape:pagecheckerboard="0"
     showgrid="false"
     inkscape:zoom="19.888889"
     inkscape:cx="14.606145"
     inkscape:cy="16.240223"
     inkscape:window-width="1920"
     inkscape:window-height="1132"
     inkscape:window-x="0"
     inkscape:window-y="32"
     inkscape:window-maximized="1"
     inkscape:current-layer="svg16"
     fit-margin-top="0"
     fit-margin-left="0"
     fit-margin-right="0"
     fit-margin-bottom="0"
     width="36px" />
  <path
     fill="#f4900c"
     d="M 13.436985,9.7783459 C 14.094985,12.416346 4.7639847,20.267346 2.1929847,13.876346 0.70198476,10.173346 -0.60001524,2.4103459 0.87998476,2.0413459 c 1.47999994,-0.368 11.90000024,5.098 12.55700024,7.737 z"
     id="path2" />
  <path
     fill="#a0041e"
     d="m 11.442985,10.331346 c 0.96,1.538 -1.8310003,4.561 -3.3680003,5.522 -1.538,0.961 -2.899,-0.552 -4.414,-4.414 -0.662,-1.6890001 -1.666,-6.2700001 -1.103,-6.6220001 0.562,-0.351 7.9240003,3.976 8.8850003,5.5140001 z"
     id="path4" />
  <path
     fill="#f4900c"
     d="m 22.562985,9.7783459 c -0.657,2.6390001 8.673,10.4890001 11.245,4.0980001 1.49,-3.703 2.792,-11.4660001 1.312,-11.8350001 -1.48,-0.368 -11.899,5.098 -12.557,7.737 z"
     id="path6" />
  <path
     fill="#a0041e"
     d="m 24.557985,10.331346 c -0.96,1.538 1.831,4.561 3.368,5.522 1.537,0.961 2.898,-0.552 4.413,-4.414 0.662,-1.6880001 1.666,-6.2690001 1.104,-6.6210001 -0.563,-0.352 -7.924,3.975 -8.885,5.5130001 z"
     id="path8" />
  <path
     fill="#f18f26"
     d="m 32.352985,26.888346 c 0,-0.454 -0.188,-1.091 -0.407,-1.687 0.585,0.028 1.519,0.191 2.77,0.817 -0.008,-0.536 -0.118,-0.984 -0.273,-1.393 0.041,0.02 0.075,0.034 0.116,0.055 -1.103,-3.31 -3.309,-5.517 -3.309,-5.517 h 2.206 c -2.331,-4.663 -4.965,-8.015 -8.075,-9.5590001 -1.39,-0.873 -3.688,-1.338 -7.373,-1.339 h -0.003 c -3.695,0 -5.996,0.468 -7.385,1.346 C 7.5159847,11.158346 4.8859847,14.507346 2.5589847,19.163346 h 2.207 c 0,0 -2.207,2.206 -3.311,5.517 0.03,-0.015 0.055,-0.025 0.084,-0.04 -0.201,0.392 -0.307,0.847 -0.282,1.377 1.263,-0.632 2.217,-0.792 2.813,-0.818 -0.189,0.513 -0.343,1.044 -0.386,1.475 -0.123,0.371 -0.191,0.812 -0.135,1.343 3.207,-1.457 4.707,-1.249 6.4570003,-0.374 1.213,3.623 4.206,6.333 8.001,6.333 3.793,0 6.746,-2.794 7.958,-6.416 1.458,-1.25 3.708,-0.875 6.416,0.416 0.066,-0.414 0.036,-0.773 -0.036,-1.093 z"
     id="path10" />
  <path
     fill="#ffd983"
     d="m 31.248985,23.577346 c 0.006,0 1.108,0.003 3.309,1.103 -1.249,-2.839 -7.525,-4.07 -9.931,-3.291 -1.171,1.954 -1.281,5.003 -3.383,6.622 -1.741,1.431 -4.713,1.458 -6.479,0 -2.345,-1.924 -2.559,-5.813 -3.382,-6.622 -2.4070003,-0.781 -8.6810003,0.454 -9.9310003,3.291 2.201,-1.101 3.304,-1.103 3.309,-1.103 0,0.001 -1.103,2.208 -1.103,3.311 l 10e-4,-10e-4 v 10e-4 c 2.398,-1.573 5.116,-2.271 7.4290003,-0.452 1.666,7.921 12.293,7.545 13.833,0 2.314,-1.818 5.03,-1.122 7.429,0.452 v -10e-4 l 0.001,10e-4 c 0.002,-1.103 -1.101,-3.311 -1.102,-3.311 z"
     id="path12" />
  <path
     fill="#272b2b"
     d="m 11,17 c 0,0 0,-1.5 1.5,-1.5 1.5,0 1.5,1.5 1.5,1.5 v 1.5 c 0,0 0,1.5 -1.5,1.5 C 11,20 11,18.5 11,18.5 Z m 11,0 c 0,0 0,-1.5 1.5,-1.5 1.5,0 1.5,1.5 1.5,1.5 v 1.5 c 0,0 0,1.5 -1.5,1.5 C 22,20 22,18.5 22,18.5 Z m -7.061,10.808 c -1.021,0.208 2.041,3.968 3.062,3.968 1.02,0 4.082,-3.76 3.062,-3.968 -1.021,-0.208 -5.103,-0.208 -6.124,0 z"
     id="path14"
     clip-path="url(#clipPath51601)"
     inkscape:path-effect="#path-effect51605"
     inkscape:original-d="m 11,17 c 0,0 0,-1.5 1.5,-1.5 1.5,0 1.5,1.5 1.5,1.5 v 1.5 c 0,0 0,1.5 -1.5,1.5 C 11,20 11,18.5 11,18.5 Z m 11,0 c 0,0 0,-1.5 1.5,-1.5 1.5,0 1.5,1.5 1.5,1.5 v 1.5 c 0,0 0,1.5 -1.5,1.5 C 22,20 22,18.5 22,18.5 Z m -7.061,10.808 c -1.021,0.208 2.041,3.968 3.062,3.968 1.02,0 4.082,-3.76 3.062,-3.968 -1.021,-0.208 -5.103,-0.208 -6.124,0 z"
     transform="translate(0.00598476,-0.0236541)" />
  <rect
     id="rect20344"
     width="14.987617"
     height="5.4221425"
     x="10.660814"
     y="15.06275" />
  <path
     style="fill:#f18f26;fill-opacity:1;stroke-width:0.0502793"
     d="m 10.665203,17.775229 v -2.664805 h 7.49162 7.49162 v 2.664805 2.664804 h -7.49162 -7.49162 z"
     id="path43623" />
  <path
     style="fill:#f18f26;fill-opacity:1;stroke-width:0.0502793"
     d="M 14.315606,27.528379 C 13.46489,26.637945 12.88055,25.459451 12.197043,23.255676 11.923358,22.373255 11.743921,21.90606 11.554649,21.583091 c -0.126701,-0.216198 -0.142027,-0.225105 -0.547607,-0.318215 -0.576266,-0.132297 -2.3143337,-0.134641 -3.1574819,-0.0043 -1.9761923,0.305592 -3.8463816,0.979038 -4.9946162,1.798537 -0.2443852,0.174418 -0.60074,0.4846 -0.7918994,0.689291 -0.1911594,0.204691 -0.3475626,0.348334 -0.3475626,0.319207 0,-0.09995 0.5829805,-1.340028 0.870599,-1.851886 0.5399921,-0.960992 1.3195062,-2.062849 1.937075,-2.73809 0.1426508,-0.155972 0.2593651,-0.297382 0.2593651,-0.314246 0,-0.01686 -0.4864525,-0.03066 -1.0810056,-0.03066 -0.594553,0 -1.0810056,-0.0066 -1.0810056,-0.01461 0,-0.008 0.1833343,-0.364389 0.4074094,-0.7919 1.3941728,-2.659922 2.6984315,-4.540018 4.2674621,-6.151569 1.2172475,-1.250235 2.0634416,-1.874141 3.7971957,-2.7997066 1.47896,-0.7895434 4.73153,-1.2087858 8.205581,-1.0576642 1.542956,0.067119 2.444202,0.1617141 3.459224,0.3630819 1.241039,0.2462071 1.689399,0.4193972 3.041899,1.1750086 2.206292,1.2326053 4.353351,3.5582893 6.223065,6.7407943 0.468591,0.797605 1.369114,2.447936 1.369114,2.509089 0,0.01511 -0.486453,0.02747 -1.081006,0.02747 -0.594553,0 -1.081005,0.01868 -1.081005,0.04152 0,0.02283 0.05931,0.09637 0.131808,0.163408 0.463289,0.428437 1.593185,2.012135 2.124307,2.977497 0.261765,0.47578 0.810924,1.656856 0.810924,1.744054 0,0.02366 -0.197975,-0.154148 -0.439944,-0.395139 -0.24197,-0.240991 -0.633862,-0.566615 -0.870873,-0.723611 -1.169171,-0.774457 -2.937534,-1.390064 -4.823261,-1.679088 -0.843788,-0.129326 -2.585209,-0.127933 -3.1531,0.0025 l -0.412876,0.09485 -0.199056,0.407949 c -0.263912,0.540865 -0.354247,0.774214 -0.771053,1.991746 -0.764143,2.232138 -1.188289,3.06167 -1.961072,3.835402 l -0.340569,0.340988 -0.1384,-0.100049 c -0.229821,-0.166136 -1.295001,-0.220591 -3.692872,-0.188789 -2.082095,0.02761 -2.542915,0.06325 -2.70411,0.209133 -0.07997,0.07237 -0.116314,0.04729 -0.473696,-0.326774 z m 3.853787,-7.075775 -7.50419,-0.0129 v -2.664475 -2.664476 l 7.50419,-0.0129 7.50419,-0.0129 -7.52933,-0.01241 -7.529329,-0.0124 v 2.715084 2.715083 l 7.529329,-0.0124 7.52933,-0.0124 z"
     id="path43662" />
  <path
     style="fill:#f18f26;fill-opacity:1;stroke-width:0.0502793"
     d="m 14.315606,27.528379 c -0.858133,-0.898197 -1.294443,-1.768132 -2.082541,-4.152256 -0.453391,-1.371583 -0.623116,-1.783587 -0.800933,-1.944255 -0.05428,-0.04904 -0.266012,-0.127112 -0.470518,-0.173485 -0.537398,-0.121859 -2.3187637,-0.120056 -3.1120539,0.0031 -2.5177159,0.391026 -4.52037,1.236284 -5.6941341,2.403317 -0.2419692,0.240582 -0.4399441,0.41806 -0.4399441,0.394396 0,-0.09303 0.5649821,-1.300197 0.8328803,-1.779577 0.5548107,-0.992785 1.4670937,-2.282752 2.0134029,-2.846949 0.1214158,-0.125391 0.2207559,-0.244176 0.2207559,-0.263966 0,-0.01979 -0.4864525,-0.03598 -1.0810056,-0.03598 -0.594553,0 -1.0810056,-0.0086 -1.0810056,-0.01908 0,-0.01049 0.1893241,-0.378161 0.4207201,-0.817039 1.4213479,-2.695802 2.675331,-4.500353 4.2541514,-6.121959 1.0008,-1.027921 1.9509803,-1.778947 2.9731667,-2.3500022 1.288882,-0.720047 1.747815,-0.8957786 2.98604,-1.1433947 2.603668,-0.5206727 6.897439,-0.5235156 9.481668,-0.00628 0.810558,0.1622346 1.418164,0.3402647 1.892064,0.5543799 0.416508,0.1881844 1.509162,0.808149 1.964242,1.114496 1.814892,1.221739 3.72945,3.392111 5.252648,5.954483 0.654748,1.101437 1.54625,2.717627 1.54625,2.803172 0,0.01609 -0.491382,0.03536 -1.09196,0.04281 l -1.091961,0.01355 0.250247,0.276537 c 0.953898,1.054113 1.937825,2.571956 2.554235,3.940261 0.156457,0.347302 0.284147,0.660573 0.283756,0.696157 -4.02e-4,0.03559 -0.11605,-0.06615 -0.257019,-0.226068 -0.301615,-0.342166 -0.928812,-0.83947 -1.433824,-1.136878 -2.088393,-1.229881 -5.635517,-1.874161 -7.74358,-1.406501 l -0.259156,0.05749 -0.27716,0.583858 c -0.152438,0.321121 -0.451215,1.092936 -0.663951,1.715142 -0.806048,2.357523 -1.176235,3.091227 -1.983372,3.931008 -0.335728,0.349305 -0.352068,0.35943 -0.444753,0.275552 -0.198119,-0.179244 -0.645408,-0.207911 -3.226977,-0.206772 -2.544916,0.0011 -3.032833,0.03113 -3.217026,0.197818 -0.07951,0.07196 -0.116595,0.04633 -0.473353,-0.327085 z m 3.753665,-7.075775 -7.403195,-0.0129 -0.01345,-2.702347 -0.01345,-2.702348 -0.01212,2.727654 -0.01212,2.727653 7.42877,-0.0124 7.428771,-0.0124 z m -6.234117,-5.37516 c -0.03404,-0.01377 -0.101918,-0.01461 -0.150838,-0.0019 -0.04892,0.01275 -0.02107,0.02402 0.06189,0.02504 0.08296,0.001 0.122987,-0.0094 0.08895,-0.02318 z m 10.683401,-0.0047 c -1.624651,-0.0074 -4.283171,-0.0074 -5.907821,0 -1.624651,0.0074 -0.295391,0.01338 2.95391,0.01338 3.249302,0 4.578562,-0.006 2.953911,-0.01338 z"
     id="path43701" />
  <path
     style="fill:#f18f26;fill-opacity:1;stroke-width:0.0502793"
     d="M 14.315606,27.528379 C 13.457727,26.630447 13.020865,25.759248 12.224592,23.358434 11.766106,21.976069 11.607421,21.590252 11.432253,21.431977 11.188211,21.211471 9.7687669,21.089992 8.6105901,21.190491 5.9196975,21.423992 3.466552,22.369886 2.1336025,23.687914 c -0.2299663,0.227393 -0.4181206,0.392023 -0.4181206,0.365847 0,-0.02618 0.1280101,-0.331751 0.2844669,-0.679053 C 2.6122967,22.01542 3.6074184,20.48026 4.5541051,19.434447 L 4.8044301,19.15791 3.7124699,19.14436 c -0.600578,-0.0075 -1.0919601,-0.02371 -1.0919601,-0.03612 0,-0.05096 0.8842852,-1.682765 1.2576431,-2.320774 0.2208661,-0.377426 0.4015748,-0.693185 0.4015748,-0.701687 0,-0.0085 0.1505915,-0.248405 0.3346478,-0.533115 1.364098,-2.110082 3.1972851,-4.1069 4.7403577,-5.163486 0.6436101,-0.4407007 1.9177378,-1.1351211 2.4099198,-1.3134489 1.642493,-0.5951092 4.542093,-0.886847 7.536025,-0.7582232 2.958097,0.1270843 4.523179,0.4525661 5.97067,1.2416886 2.070491,1.1287605 3.468266,2.3767155 5.119518,4.5707825 0.511814,0.680063 1.341376,1.890066 1.341376,1.956538 0,0.0109 0.166289,0.299165 0.369532,0.640582 0.381881,0.641502 1.289686,2.309489 1.289686,2.369648 0,0.01874 -0.487165,0.04016 -1.082589,0.04762 l -1.082588,0.01355 0.409348,0.477654 c 0.728605,0.850182 1.459337,1.935402 2.008279,2.982522 0.2891,0.551465 0.652578,1.356755 0.652578,1.445796 0,0.02481 -0.18708,-0.141233 -0.415732,-0.368981 -0.459366,-0.457548 -0.947507,-0.811573 -1.595441,-1.157098 -1.84659,-0.984732 -4.765843,-1.563688 -6.762132,-1.341089 -0.760641,0.08482 -0.882011,0.134495 -1.042574,0.426732 -0.22706,0.413268 -0.466509,1.018831 -0.899239,2.274161 -0.226234,0.656295 -0.488581,1.37427 -0.582994,1.595499 -0.404249,0.947246 -0.903675,1.72207 -1.423247,2.208069 -0.241042,0.225466 -0.262615,0.235288 -0.347687,0.158299 -0.190116,-0.172053 -0.65957,-0.201352 -3.196317,-0.199487 -2.513635,0.0018 -3.064686,0.03486 -3.240687,0.194139 -0.08147,0.07373 -0.115416,0.05045 -0.474832,-0.325747 z m 2.873847,-7.075775 -6.523236,-0.01295 -0.0136,-2.300091 -0.0136,-2.300092 -0.01205,2.325419 -0.01205,2.325419 6.548882,-0.01238 6.548883,-0.01238 z m -5.354299,-5.37516 c -0.03404,-0.01377 -0.101918,-0.01461 -0.150838,-0.0019 -0.04892,0.01275 -0.02107,0.02402 0.06189,0.02504 0.08296,0.001 0.122987,-0.0094 0.08895,-0.02318 z m 9.555821,-0.0047 c -1.000406,-0.0076 -2.652082,-0.0076 -3.670391,-8e-6 -1.018309,0.0076 -0.199795,0.01384 1.818921,0.01384 2.018715,5e-6 2.851876,-0.0062 1.85147,-0.01383 z"
     id="path43740" />
  <path
     style="fill:#f18f26;fill-opacity:1;stroke-width:0.0502793"
     d="m 14.325997,27.541936 c -0.844775,-0.868685 -1.348283,-1.873086 -2.122513,-4.234001 -0.424452,-1.294313 -0.628837,-1.773879 -0.805273,-1.889486 -0.381442,-0.24993 -2.3063045,-0.33559 -3.4983716,-0.155684 -1.5140705,0.228503 -2.8859632,0.641115 -4.0167581,1.208083 -0.7854121,0.393797 -1.2734414,0.741269 -1.8282139,1.30167 -0.186662,0.188555 -0.3393855,0.32011 -0.3393855,0.292343 0,-0.09043 0.4018864,-0.971524 0.7130925,-1.563375 C 2.9541431,21.50196 3.89147,20.152277 4.5760284,19.409307 L 4.8076607,19.15791 3.7140853,19.14436 c -0.6014665,-0.0075 -1.0935755,-0.02547 -1.0935755,-0.04004 0,-0.03944 0.8013273,-1.530374 1.133204,-2.108417 0.1587701,-0.276536 0.3461605,-0.604609 0.4164232,-0.72905 0.4732593,-0.838184 1.5628449,-2.34916 2.3693132,-3.285629 0.6277435,-0.728939 1.7527867,-1.804517 2.3804372,-2.27578 0.9717958,-0.7296601 2.3086426,-1.4682698 3.1279966,-1.7282229 1.481794,-0.4701224 3.269439,-0.6716382 5.958101,-0.6716382 2.195716,0 3.257411,0.083729 4.767801,0.3760062 1.256669,0.2431792 1.907448,0.5040377 3.242609,1.2997688 1.835364,1.0938421 3.585621,2.8803621 5.247666,5.3563911 0.471778,0.702831 2.127399,3.63113 2.127399,3.762734 0,0.01776 -0.47514,0.03229 -1.055866,0.03229 -0.580726,0 -1.055773,0.01697 -1.055659,0.03771 1.01e-4,0.02074 0.217628,0.297905 0.483363,0.615922 0.602682,0.721254 1.454692,1.997159 1.863518,2.790662 0.366886,0.712099 0.679684,1.427905 0.655578,1.500223 -0.0094,0.02827 -0.08364,-0.03598 -0.164928,-0.142785 -0.382107,-0.502058 -1.481398,-1.265062 -2.410364,-1.673001 -2.141741,-0.94051 -5.182137,-1.364547 -6.837989,-0.953679 l -0.251396,0.06238 -0.232691,0.466103 c -0.223298,0.44729 -0.411953,0.943731 -1.026605,2.701495 -0.51683,1.478012 -1.113194,2.536577 -1.780879,3.161118 -0.238327,0.222928 -0.266421,0.236286 -0.345819,0.164431 -0.189387,-0.171397 -0.75719,-0.207396 -3.225738,-0.204519 -2.436274,0.0028 -3.04453,0.04052 -3.22021,0.199512 -0.07233,0.06546 -0.120963,0.032 -0.459778,-0.316409 z m -3.673466,-9.377043 c -0.0084,-0.421717 -0.01529,-0.07667 -0.01529,0.76676 0,0.843436 0.0069,1.188478 0.01529,0.76676 0.0084,-0.421718 0.0084,-1.111802 0,-1.53352 z m 1.181666,-3.087768 c -0.03457,-0.01395 -0.09113,-0.01395 -0.125698,0 -0.03457,0.01395 -0.0063,0.02536 0.06285,0.02536 0.06913,0 0.09742,-0.01141 0.06285,-0.02536 z m 8.726849,-0.0043 c -0.571952,-0.0081 -1.522231,-0.0081 -2.111732,-2.3e-5 -0.589502,0.008 -0.121541,0.01464 1.039911,0.01466 1.161453,1.2e-5 1.643772,-0.0066 1.071821,-0.01464 z"
     id="path43779" />
  <path
     style="fill:#f18f26;fill-opacity:1;stroke-width:0.0502793"
     d="M 14.297924,27.510248 C 13.853145,27.045673 13.544349,26.59754 13.209282,25.930381 12.892377,25.299386 12.734493,24.892448 12.24958,23.456793 11.589984,21.503964 11.557413,21.440224 11.158635,21.321799 10.719198,21.1913 9.5994975,21.131802 8.7288234,21.192685 c -2.6588492,0.185921 -5.2324127,1.16491 -6.6000538,2.510674 -0.2273082,0.223672 -0.4132877,0.386143 -0.4132877,0.361047 0,-0.09381 0.3688001,-0.905326 0.6855013,-1.508386 0.5331622,-1.015244 1.3849081,-2.266627 2.0489722,-3.010346 0.1552575,-0.17388 0.2822863,-0.337916 0.2822863,-0.364525 0,-0.02945 -0.413128,-0.04838 -1.0558659,-0.04838 -0.5807263,0 -1.055866,-0.01369 -1.055866,-0.03043 0,-0.137871 1.6653086,-3.075618 2.1692035,-3.826661 1.1979585,-1.785524 2.8371426,-3.599712 4.1279648,-4.568674 0.9368462,-0.703248 2.2900469,-1.4587652 3.0860919,-1.7230229 2.826214,-0.9381997 9.2758,-0.9273473 12.071338,0.020312 0.713002,0.2417002 2.069755,0.9989949 2.943357,1.6428839 1.39549,1.028547 2.899712,2.684807 4.204254,4.629195 0.521966,0.777977 2.168741,3.680774 2.168741,3.822874 0,0.01844 -0.47514,0.03352 -1.055866,0.03352 -0.580726,0 -1.055211,0.01697 -1.05441,0.03771 8e-4,0.02074 0.1821,0.252654 0.402886,0.515363 0.74682,0.888627 1.482659,1.99088 1.986074,2.97505 0.28875,0.564501 0.626344,1.32273 0.626344,1.406755 0,0.02688 -0.17751,-0.12864 -0.394467,-0.345596 -1.412345,-1.412345 -4.121534,-2.401571 -6.996595,-2.554719 -0.69945,-0.03726 -1.646374,0.03398 -2.051724,0.154357 l -0.261309,0.0776 -0.221468,0.463109 c -0.19834,0.414745 -0.423098,1.012699 -1.090673,2.901655 -0.444479,1.257688 -1.075762,2.348426 -1.693751,2.926482 l -0.250441,0.234259 -0.208933,-0.103372 c -0.306587,-0.151687 -2.26663,-0.219912 -4.419227,-0.153825 -1.451778,0.04457 -1.632438,0.05951 -1.815679,0.150175 l -0.203488,0.100677 z m -3.645933,-8.591165 c -0.01016,-0.145181 -0.01847,-0.0264 -0.01847,0.263967 0,0.290363 0.0083,0.409148 0.01847,0.263966 0.01016,-0.145181 0.01016,-0.382751 0,-0.527933 z m 1.156019,-3.839036 c -0.01671,-0.01671 -0.06007,-0.01849 -0.09637,-0.004 -0.04011,0.01605 -0.0282,0.02796 0.03038,0.03038 0.053,0.0022 0.0827,-0.0097 0.06599,-0.02641 z m 7.997431,-0.0067 c -0.157924,-0.0099 -0.429433,-0.01003 -0.603351,-2.01e-4 -0.17392,0.0098 -0.04471,0.01798 0.287135,0.01808 0.331844,1.01e-4 0.474141,-0.008 0.316216,-0.0179 z"
     id="path43818" />
  <path
     style="fill:#f18f26;fill-opacity:1;stroke-width:0.0502793"
     d="m 14.359921,27.586146 c -0.449118,-0.46165 -0.774129,-0.921958 -1.097682,-1.554631 -0.357124,-0.698319 -0.501736,-1.067487 -1.04548,-2.668928 -0.529824,-1.56044 -0.683673,-1.895886 -0.913053,-1.990778 -0.433149,-0.179189 -2.1903377,-0.250274 -3.1776096,-0.128545 -1.5393556,0.189799 -3.2368706,0.697742 -4.3994413,1.316434 -0.6531412,0.347585 -1.0528936,0.638018 -1.5712291,1.141547 -0.2419692,0.235057 -0.4399441,0.404558 -0.4399441,0.376667 0,-0.104533 0.2723938,-0.719479 0.6177788,-1.394674 0.5418102,-1.059186 1.3855229,-2.307419 2.150618,-3.181736 0.1353957,-0.154724 0.2340183,-0.300986 0.2191615,-0.325024 -0.014857,-0.02404 -0.489504,-0.04371 -1.0547714,-0.04371 -0.5652675,0 -1.027759,-0.01453 -1.027759,-0.03229 0,-0.13601 1.6603023,-3.067457 2.1602058,-3.814081 1.5348801,-2.2924 3.3386499,-4.149172 5.0728368,-5.221896 0.6873586,-0.4251822 1.6391386,-0.9096447 2.0820556,-1.0597805 0.810768,-0.2748262 2.129365,-0.5100076 3.58155,-0.638796 0.903836,-0.080157 4.05342,-0.079476 4.977654,0.00108 1.543209,0.1345005 3.004547,0.4073241 3.772959,0.7043904 0.494496,0.1911708 1.647102,0.8170272 2.256994,1.2255301 1.617327,1.08328 3.256759,2.818797 4.689489,4.964335 0.549829,0.823379 2.177206,3.692152 2.177206,3.838024 0,0.01842 -0.446858,0.03383 -0.993017,0.03425 -0.546159,4.03e-4 -1.01874,0.01739 -1.050179,0.03771 -0.03719,0.02403 0.08213,0.203835 0.341489,0.514593 0.467784,0.560485 0.947496,1.226338 1.392085,1.93225 0.344109,0.546372 1.138107,2.120417 1.193805,2.366633 0.03066,0.135554 -0.0063,0.111054 -0.364842,-0.241791 -0.550334,-0.541597 -1.132137,-0.944948 -1.902023,-1.318634 -1.412288,-0.685492 -3.031636,-1.10039 -4.81663,-1.234084 -0.860028,-0.06442 -1.872246,-0.007 -2.343561,0.132992 -0.251044,0.07455 -0.257802,0.08188 -0.453253,0.491388 -0.237949,0.498551 -0.355853,0.804095 -0.816878,2.116898 -0.193656,0.551449 -0.419991,1.173656 -0.502966,1.382682 -0.379566,0.956182 -0.938898,1.852392 -1.487633,2.383612 -0.244267,0.236471 -0.255468,0.241404 -0.373107,0.164323 -0.0667,-0.0437 -0.289916,-0.100907 -0.496028,-0.127113 -0.62273,-0.07918 -2.496509,-0.106834 -4.10597,-0.0606 -1.367916,0.03929 -1.539255,0.05369 -1.723341,0.144766 l -0.204409,0.101133 z"
     id="path43857" />
  <path
     style="fill:#f18f26;fill-opacity:1;stroke-width:0.0502793"
     d="m 14.403969,27.642829 c -0.427383,-0.432058 -0.826131,-0.994183 -1.138203,-1.604554 -0.354369,-0.6931 -0.577208,-1.261284 -1.070533,-2.729591 -0.217837,-0.64836 -0.47586,-1.338444 -0.573384,-1.53352 -0.199017,-0.398091 -0.269341,-0.439497 -0.901874,-0.531014 -0.519927,-0.07523 -2.0883058,-0.0595 -2.752725,0.02759 -1.1152026,0.14619 -2.2770199,0.44766 -3.2862076,0.852708 -1.0888276,0.437013 -1.7838744,0.868696 -2.5029605,1.55455 -0.5888592,0.561646 -0.5881332,0.521868 0.012773,-0.699864 0.606453,-1.233008 1.3020399,-2.306209 2.1363972,-3.296187 0.3300835,-0.391649 0.3851535,-0.480745 0.3145717,-0.508938 -0.047058,-0.0188 -0.521105,-0.03577 -1.0534374,-0.03771 -0.5323324,-0.0019 -0.9678771,-0.01862 -0.9678771,-0.03706 0,-0.124898 1.6059164,-2.980203 2.0872048,-3.711033 C 6.1018147,13.271287 7.894097,11.364917 9.4992903,10.291624 9.9649538,9.9802629 10.609756,9.6091278 11.20764,9.3083303 c 1.271804,-0.6398471 3.355514,-0.9712565 6.34583,-1.0092898 3.181374,-0.040463 5.6787,0.2818303 7.033277,0.9076827 1.495578,0.6910001 2.777111,1.5889428 3.976731,2.7864108 1.615843,1.612944 2.990855,3.580493 4.478694,6.408707 0.192108,0.365175 0.349287,0.677703 0.349287,0.694508 0,0.0168 -0.450681,0.03753 -1.001513,0.04605 -0.550831,0.0085 -1.017787,0.03183 -1.037679,0.05178 -0.01989,0.01996 0.08238,0.178336 0.227266,0.351956 0.916457,1.098194 1.635258,2.19891 2.24185,3.43299 0.600022,1.220717 0.600959,1.261037 0.01635,0.703911 -0.26116,-0.248883 -0.655072,-0.572872 -0.875359,-0.719976 -1.940371,-1.295749 -5.363968,-2.055624 -7.716166,-1.712621 -0.59776,0.08717 -0.627462,0.10635 -0.83244,0.53764 -0.252864,0.532044 -0.417325,0.954211 -0.821666,2.109194 -0.191096,0.545857 -0.419453,1.173472 -0.507461,1.394701 -0.390215,0.980902 -0.943457,1.870135 -1.496784,2.405801 -0.245376,0.237545 -0.254975,0.241726 -0.374723,0.163265 -0.225302,-0.147624 -0.879789,-0.185601 -3.182009,-0.184635 -2.300094,9.66e-4 -3.012214,0.04044 -3.223155,0.17865 -0.113682,0.07449 -0.127616,0.06717 -0.404001,-0.21224 z"
     id="path43896" />
  <path
     style="fill:#f18f26;fill-opacity:1;stroke-width:0.0502793"
     d="m 14.402815,27.645005 c -0.914169,-0.94931 -1.324158,-1.742554 -2.138694,-4.137933 -0.514997,-1.514499 -0.667383,-1.879371 -0.848583,-2.031841 -0.251243,-0.211407 -0.605124,-0.256092 -2.0073187,-0.253472 -1.3984275,0.0026 -1.8778887,0.06065 -3.0832261,0.373225 -1.8362553,0.476185 -3.1519523,1.140892 -4.1677735,2.105612 -0.5567972,0.528788 -0.5580281,0.490824 -0.020131,-0.620898 0.591698,-1.222918 1.335546,-2.380104 2.1729246,-3.380366 0.20299,-0.242475 0.3697199,-0.455004 0.370511,-0.472288 0.00305,-0.06659 -0.3452735,-0.09427 -1.1864109,-0.09427 -0.4804819,0 -0.8736034,-0.01509 -0.8736034,-0.03352 0,-0.126809 1.510769,-2.823522 2.0490637,-3.657565 0.7109995,-1.101635 1.7502949,-2.389306 2.7167692,-3.366037 1.2149256,-1.22782 2.247209,-1.975378 3.8212981,-2.7673067 1.084716,-0.545723 2.805538,-0.8702497 5.253707,-0.990787 2.841031,-0.1398801 5.918483,0.1234604 7.477598,0.6398651 0.860348,0.2849616 2.198054,1.0215625 3.142458,1.7303796 1.465297,1.099769 3.204842,3.063773 4.384783,4.950562 0.585857,0.936818 1.925273,3.344592 1.925273,3.460929 0,0.01842 -0.401606,0.03616 -0.892458,0.03943 -0.490852,0.0033 -0.95769,0.02024 -1.037418,0.03771 l -0.14496,0.03176 0.432232,0.541124 c 0.572343,0.716534 1.056151,1.402831 1.443931,2.048261 0.348187,0.579531 1.02598,1.948309 1.083035,2.187151 0.0323,0.135225 -0.008,0.108727 -0.389552,-0.256004 -0.726692,-0.69469 -1.495458,-1.178794 -2.531123,-1.593889 -1.035404,-0.414991 -2.231442,-0.718368 -3.423787,-0.868447 -1.19753,-0.150732 -3.016979,-0.07553 -3.270888,0.135199 -0.195888,0.162573 -0.518918,0.935502 -1.174128,2.809398 -0.599601,1.714853 -1.192001,2.80287 -1.898487,3.486806 -0.242337,0.234602 -0.256309,0.240868 -0.37076,0.166265 -0.218777,-0.142607 -0.936215,-0.183811 -3.184654,-0.182904 -2.308691,9.3e-4 -3.019274,0.03947 -3.22605,0.174952 -0.120415,0.0789 -0.128275,0.07479 -0.403578,-0.211097 z"
     id="path43935" />
  <text
     xml:space="preserve"
     style="font-style:normal;font-variant:normal;font-weight:normal;font-stretch:normal;font-size:16px;line-height:1.25;font-family:Overpass;-inkscape-font-specification:Overpass;letter-spacing:-1px;fill:#272b2b;fill-opacity:1;stroke:none"
     x="8.9459906"
     y="23.576347"
     id="text48393"><tspan
       sodipodi:role="line"
       id="tspan48391"
       x="8.9459906"
       y="23.576347"
       style="font-style:normal;font-variant:normal;font-weight:normal;font-stretch:normal;font-size:16px;font-family:Overpass;-inkscape-font-specification:Overpass;fill:#272b2b;fill-opacity:1">32</tspan></text>
</svg>
